<svg width="152" height="39" viewBox="0 0 152 39" fill="none" xmlns="http://www.w3.org/2000/svg">
<path d="M19.932 12.9957C19.1852 12.2351 18.3221 11.5457 17.3548 10.9397C16.015 10.101 14.3009 9.67452 12.2603 9.67452C10.659 9.67452 9.10381 9.99082 7.6375 10.6145C6.16605 11.24 4.85184 12.1836 3.73074 13.4186C2.61476 14.6482 1.70387 16.1711 1.0254 17.9463C0.345217 19.7215 0 21.7881 0 24.0857V24.187C0 26.4864 0.345217 28.5512 1.02369 30.3264C1.70216 32.1034 2.6216 33.628 3.75466 34.8559C4.88943 36.0891 6.2122 37.0309 7.68364 37.6582C9.14996 38.2819 10.6898 38.5982 12.2586 38.5982C14.2684 38.5982 15.9671 38.1629 17.3087 37.3064C18.2828 36.6826 19.1612 35.9239 19.9303 35.0407V38.0936H28.1557V0.396973H19.9303V12.9957H19.932ZM19.5475 21.1733C19.8671 22.0493 20.0294 23.0284 20.0294 24.0875V24.1888C20.0294 25.2479 19.8671 26.227 19.5475 27.103C19.2279 27.9773 18.7989 28.7343 18.2709 29.3509C17.7479 29.9604 17.1275 30.4366 16.4269 30.7636C15.7262 31.0905 14.9622 31.2576 14.1539 31.2576C13.3455 31.2576 12.5799 31.0923 11.8792 30.7636C11.1751 30.4348 10.5462 29.9568 10.0062 29.3455C9.46441 28.7307 9.02691 27.9755 8.70904 27.103C8.38945 26.227 8.2271 25.2479 8.2271 24.1888V24.0875C8.2271 22.9982 8.38945 22.0102 8.70733 21.1502C9.0252 20.2937 9.4627 19.5456 10.0062 18.929C10.5462 18.3159 11.1751 17.8397 11.8792 17.5109C12.5799 17.1822 13.3455 17.0169 14.1522 17.0169C14.9588 17.0169 15.7245 17.184 16.4251 17.5109C17.1275 17.8397 17.7479 18.3141 18.2692 18.9236C18.7989 19.542 19.2279 20.2972 19.5475 21.1715V21.1733Z" fill="white"/>
<path d="M47.3709 9.67628C46.3951 9.67628 45.5047 9.80245 44.7237 10.0512C43.9444 10.3 43.2249 10.6412 42.5823 11.0659C41.9432 11.4888 41.3553 11.9792 40.8357 12.523C40.6119 12.7575 40.3948 12.9992 40.1846 13.2462V10.1792H31.9592V38.0953H40.1846V22.6108C40.1846 20.9245 40.5623 19.6468 41.3074 18.8134C42.0543 17.9783 43.0557 17.5713 44.3648 17.5713C45.6739 17.5713 46.6429 17.9747 47.3419 18.8028C48.0443 19.6362 48.3998 20.9174 48.3998 22.609V38.0935H56.6252V20.1515C56.6252 16.9281 55.8134 14.3515 54.212 12.4928C52.5988 10.6216 50.2967 9.67273 47.3709 9.67273V9.67628Z" fill="white"/>
<path d="M79.2479 28.1585L78.9437 28.4517C78.0687 29.2975 77.1749 29.9799 76.2897 30.4792C75.4369 30.9625 74.42 31.206 73.2682 31.206C72.3316 31.206 71.4771 31.0247 70.7303 30.6658C69.9801 30.3068 69.3255 29.8093 68.7838 29.1838C68.242 28.5583 67.8216 27.812 67.5362 26.9626C67.2474 26.1078 67.1004 25.1732 67.1004 24.1852V24.0839C67.1004 23.1296 67.2474 22.2216 67.5362 21.3847C67.8233 20.5513 68.2369 19.8103 68.765 19.183C69.2896 18.5593 69.9134 18.06 70.6192 17.701C71.3165 17.3456 72.1112 17.1661 72.9776 17.1661C74.2184 17.1661 75.2643 17.4167 76.0846 17.9125C76.9357 18.4278 77.7765 19.1315 78.5865 20.0057L78.8993 20.3434L83.9836 14.6588L83.7204 14.3568C82.4591 12.9085 80.9791 11.7535 79.3197 10.9254C77.6517 10.0938 75.5343 9.6709 73.0238 9.6709C70.9713 9.6709 69.064 10.0565 67.3516 10.8153C65.6409 11.5758 64.1507 12.626 62.9219 13.9392C61.6931 15.2524 60.7156 16.809 60.02 18.5682C59.3228 20.3291 58.969 22.2181 58.969 24.1834V24.2847C58.969 26.2518 59.3228 28.1318 60.02 29.8768C60.7173 31.62 61.6931 33.1606 62.9236 34.456C64.1541 35.7532 65.6443 36.7945 67.3516 37.5533C69.0623 38.3138 70.9388 38.6994 72.9264 38.6994C75.5719 38.6994 77.7628 38.2143 79.4376 37.2583C81.0885 36.3147 82.5788 35.0869 83.8639 33.612L84.1357 33.301L79.2445 28.1567L79.2479 28.1585Z" fill="white"/>
<path d="M93.85 29V11.25H105.775V14.275H97.3V18.85H104.35V21.65H97.3V29H93.85ZM113.149 29.25C112.083 29.25 111.124 29.075 110.274 28.725C109.424 28.3583 108.699 27.8583 108.099 27.225C107.516 26.5917 107.066 25.8667 106.749 25.05C106.433 24.2333 106.274 23.375 106.274 22.475C106.274 21.5583 106.433 20.6917 106.749 19.875C107.066 19.0583 107.516 18.3333 108.099 17.7C108.699 17.0667 109.424 16.575 110.274 16.225C111.124 15.8583 112.083 15.675 113.149 15.675C114.216 15.675 115.166 15.8583 115.999 16.225C116.849 16.575 117.574 17.0667 118.174 17.7C118.774 18.3333 119.224 19.0583 119.524 19.875C119.841 20.6917 119.999 21.5583 119.999 22.475C119.999 23.375 119.841 24.2333 119.524 25.05C119.224 25.8667 118.774 26.5917 118.174 27.225C117.591 27.8583 116.874 28.3583 116.024 28.725C115.174 29.075 114.216 29.25 113.149 29.25ZM109.724 22.475C109.724 23.2417 109.874 23.925 110.174 24.525C110.474 25.1083 110.883 25.5667 111.399 25.9C111.916 26.2333 112.499 26.4 113.149 26.4C113.783 26.4 114.358 26.2333 114.874 25.9C115.391 25.55 115.799 25.0833 116.099 24.5C116.416 23.9 116.574 23.2167 116.574 22.45C116.574 21.7 116.416 21.025 116.099 20.425C115.799 19.825 115.391 19.3583 114.874 19.025C114.358 18.6917 113.783 18.525 113.149 18.525C112.499 18.525 111.916 18.7 111.399 19.05C110.883 19.3833 110.474 19.85 110.174 20.45C109.874 21.0333 109.724 21.7083 109.724 22.475ZM128.31 29.25C127.244 29.25 126.285 29.075 125.435 28.725C124.585 28.3583 123.86 27.8583 123.26 27.225C122.677 26.5917 122.227 25.8667 121.91 25.05C121.594 24.2333 121.435 23.375 121.435 22.475C121.435 21.5583 121.594 20.6917 121.91 19.875C122.227 19.0583 122.677 18.3333 123.26 17.7C123.86 17.0667 124.585 16.575 125.435 16.225C126.285 15.8583 127.244 15.675 128.31 15.675C129.377 15.675 130.327 15.8583 131.16 16.225C132.01 16.575 132.735 17.0667 133.335 17.7C133.935 18.3333 134.385 19.0583 134.685 19.875C135.002 20.6917 135.16 21.5583 135.16 22.475C135.16 23.375 135.002 24.2333 134.685 25.05C134.385 25.8667 133.935 26.5917 133.335 27.225C132.752 27.8583 132.035 28.3583 131.185 28.725C130.335 29.075 129.377 29.25 128.31 29.25ZM124.885 22.475C124.885 23.2417 125.035 23.925 125.335 24.525C125.635 25.1083 126.044 25.5667 126.56 25.9C127.077 26.2333 127.66 26.4 128.31 26.4C128.944 26.4 129.519 26.2333 130.035 25.9C130.552 25.55 130.96 25.0833 131.26 24.5C131.577 23.9 131.735 23.2167 131.735 22.45C131.735 21.7 131.577 21.025 131.26 20.425C130.96 19.825 130.552 19.3583 130.035 19.025C129.519 18.6917 128.944 18.525 128.31 18.525C127.66 18.525 127.077 18.7 126.56 19.05C126.044 19.3833 125.635 19.85 125.335 20.45C125.035 21.0333 124.885 21.7083 124.885 22.475ZM136.621 22.45C136.621 21.1833 136.871 20.0417 137.371 19.025C137.871 17.9917 138.563 17.175 139.446 16.575C140.33 15.975 141.338 15.675 142.471 15.675C143.438 15.675 144.305 15.9167 145.071 16.4C145.855 16.8667 146.463 17.4667 146.896 18.2V10.75H150.246V25.25C150.246 25.6 150.305 25.85 150.421 26C150.538 26.15 150.738 26.2417 151.021 26.275V29C150.438 29.1167 149.963 29.175 149.596 29.175C148.996 29.175 148.496 29.025 148.096 28.725C147.713 28.425 147.496 28.0333 147.446 27.55L147.396 26.725C146.913 27.5417 146.255 28.1667 145.421 28.6C144.605 29.0333 143.746 29.25 142.846 29.25C141.946 29.25 141.113 29.075 140.346 28.725C139.596 28.375 138.938 27.8917 138.371 27.275C137.821 26.6583 137.388 25.9417 137.071 25.125C136.771 24.2917 136.621 23.4 136.621 22.45ZM146.896 24.2V21.075C146.73 20.5917 146.463 20.1583 146.096 19.775C145.73 19.3917 145.321 19.0917 144.871 18.875C144.421 18.6417 143.971 18.525 143.521 18.525C143.005 18.525 142.538 18.6333 142.121 18.85C141.705 19.0667 141.338 19.3583 141.021 19.725C140.721 20.0917 140.488 20.5167 140.321 21C140.171 21.4833 140.096 21.9917 140.096 22.525C140.096 23.0583 140.18 23.5667 140.346 24.05C140.53 24.5167 140.788 24.925 141.121 25.275C141.455 25.625 141.838 25.9 142.271 26.1C142.721 26.3 143.205 26.4 143.721 26.4C144.038 26.4 144.355 26.35 144.671 26.25C145.005 26.1333 145.313 25.9833 145.596 25.8C145.896 25.6 146.155 25.3667 146.371 25.1C146.605 24.8167 146.78 24.5167 146.896 24.2Z" fill="white"/>
</svg>
